<svg width="120" height="120" viewBox="0 0 120 120" fill="none" xmlns="http://www.w3.org/2000/svg">
<g clip-path="url(#clip0_288_21219)">
<path fill-rule="evenodd" clip-rule="evenodd" d="M60 120C93.1371 120 120 93.1371 120 60C120 26.8629 93.1371 0 60 0C45.133 0 39.4818 17.8318 29 26.7868C16.1188 37.7917 0 41.7299 0 60C0 93.1371 26.8629 120 60 120Z" fill="#F6F6F6"/>
<g filter="url(#filter0_f_288_21219)">
<path d="M96 39H44C42.3431 39 41 40.1485 41 41.5652V95.4348C41 96.8515 42.3431 98 44 98H96C97.6569 98 99 96.8515 99 95.4348V41.5652C99 40.1485 97.6569 39 96 39Z" fill="#EBEBEB"/>
</g>
<path d="M29.2689 43.2553C29.1227 40.3974 31.4006 38 34.2623 38H66.9993C69.6615 38 71.8568 40.0859 71.9927 42.7447L73.7314 76.7447C73.8775 79.6026 71.5996 82 68.7379 82H36.001C33.3388 82 31.1435 79.9141 31.0075 77.2553L29.2689 43.2553Z" fill="#ED5683"/>
<path d="M29.2658 50.2526C29.1213 47.3956 31.3988 45 34.2594 45H89.7409C92.6015 45 94.879 47.3956 94.7345 50.2526L92.9644 85.2525C92.8299 87.9124 90.634 90 87.9708 90H36.0295C33.3663 90 31.1704 87.9124 31.0359 85.2526L29.2658 50.2526Z" fill="white"/>
</g>
<defs>
<filter id="filter0_f_288_21219" x="30" y="28" width="80" height="81" filterUnits="userSpaceOnUse" color-interpolation-filters="sRGB">
<feFlood flood-opacity="0" result="BackgroundImageFix"/>
<feBlend mode="normal" in="SourceGraphic" in2="BackgroundImageFix" result="shape"/>
<feGaussianBlur stdDeviation="5.5" result="effect1_foregroundBlur_288_21219"/>
</filter>
<clipPath id="clip0_288_21219">
<rect width="120" height="120" fill="white"/>
</clipPath>
</defs>
</svg>
