<svg width="25" height="24" viewBox="0 0 25 24" fill="none" xmlns="http://www.w3.org/2000/svg">
<circle cx="12.333" cy="12" r="12" fill="#ED5683"/>
<path d="M17.333 6H7.33301C6.78072 6 6.33301 6.44772 6.33301 7V17C6.33301 17.5523 6.78072 18 7.33301 18H17.333C17.8853 18 18.333 17.5523 18.333 17V7C18.333 6.44772 17.8853 6 17.333 6Z" stroke="white" stroke-linecap="round" stroke-linejoin="round"/>
<path d="M10.3327 11.6667C11.2531 11.6667 11.9993 10.9205 11.9993 10C11.9993 9.07953 11.2531 8.33333 10.3327 8.33333C9.41222 8.33333 8.66602 9.07953 8.66602 10C8.66602 10.9205 9.41222 11.6667 10.3327 11.6667Z" stroke="white" stroke-linecap="round" stroke-linejoin="round"/>
<path d="M13.596 12.7398C13.8681 12.3756 14.4169 12.3846 14.677 12.7575L17.6019 16.952C17.9101 17.394 17.5938 18 17.055 18H9.66602L13.596 12.7398Z" stroke="white" stroke-linecap="round" stroke-linejoin="round"/>
</svg>
