<svg width="17" height="16" viewBox="0 0 17 16" fill="none" xmlns="http://www.w3.org/2000/svg">
<path d="M14.4997 7.63331C14.5782 7.63331 14.6509 7.65798 14.7106 7.69998H14.2888C14.3484 7.65798 14.4212 7.63331 14.4997 7.63331ZM14.133 8.29998H14.8663V12.7H14.133V8.29998ZM14.0576 13.3H14.8333C14.7182 13.8139 14.3136 14.2185 13.7997 14.3336V13.5579C13.9088 13.4991 13.9988 13.4091 14.0576 13.3ZM8.86634 1.99998C8.86634 2.07848 8.84168 2.15121 8.79967 2.21086V1.7891C8.84168 1.84875 8.86634 1.92148 8.86634 1.99998ZM2.94176 13.3C3.00058 13.4091 3.09051 13.4991 3.19967 13.5579V14.3336C2.68574 14.2185 2.28115 13.8139 2.16604 13.3H2.94176ZM13.1997 14.3666H3.79967V13.6333H13.1997V14.3666ZM3.19967 2.44207C3.09051 2.50089 3.00058 2.59082 2.94176 2.69998H2.16604C2.28115 2.18604 2.68574 1.78145 3.19967 1.66634V2.44207ZM2.86634 3.29998V12.7H2.13301V3.29998H2.86634ZM8.19967 2.36665H3.79967V1.63331H8.19967V2.36665Z" fill="white" stroke="white" stroke-width="0.6"/>
<path d="M2.5 11.6667L6.06437 8.39936C6.31297 8.17146 6.69263 8.16512 6.9487 8.38462L11.1667 12" stroke="white" stroke-width="0.8" stroke-linecap="round" stroke-linejoin="round"/>
<path d="M9.83301 10.3333L11.4242 8.74218C11.6587 8.50762 12.0301 8.48122 12.2956 8.68028L14.4997 10.3333" stroke="white" stroke-linecap="round" stroke-linejoin="round"/>
<path d="M10.5 4H14.5Z" fill="white"/>
<path d="M10.5 4H14.5" stroke="white" stroke-linecap="round" stroke-linejoin="round"/>
<path d="M12.5 2V6" stroke="white" stroke-linecap="round" stroke-linejoin="round"/>
</svg>
