<svg width="32" height="32" viewBox="0 0 32 32" fill="none" xmlns="http://www.w3.org/2000/svg">
<rect width="32" height="32" rx="6" fill="#F6F6F6"/>
<path d="M22.6663 16C22.6663 15.6318 22.3679 15.3333 21.9997 15.3333C21.6315 15.3333 21.333 15.6318 21.333 16H22.6663ZM15.9997 10.6667C16.3679 10.6667 16.6663 10.3682 16.6663 10C16.6663 9.63182 16.3679 9.33334 15.9997 9.33334V10.6667ZM20.9997 21.3333H10.9997V22.6667H20.9997V21.3333ZM10.6663 21V11H9.33301V21H10.6663ZM21.333 16V21H22.6663V16H21.333ZM10.9997 10.6667H15.9997V9.33334H10.9997V10.6667ZM10.9997 21.3333C10.8156 21.3333 10.6663 21.1841 10.6663 21H9.33301C9.33301 21.9205 10.0792 22.6667 10.9997 22.6667V21.3333ZM20.9997 22.6667C21.9201 22.6667 22.6663 21.9205 22.6663 21H21.333C21.333 21.1841 21.1838 21.3333 20.9997 21.3333V22.6667ZM10.6663 11C10.6663 10.8159 10.8156 10.6667 10.9997 10.6667V9.33334C10.0792 9.33334 9.33301 10.0795 9.33301 11H10.6663Z" fill="#3B3C41"/>
<path d="M10 19.6667L13.5644 16.3993C13.813 16.1714 14.1926 16.1651 14.4487 16.3846L18.6667 20" stroke="#3B3C41" stroke-linejoin="round"/>
<path d="M17.333 18.3333L18.9242 16.7422C19.1587 16.5076 19.5301 16.4812 19.7956 16.6803L21.9997 18.3333" stroke="#3B3C41" stroke-linejoin="round"/>
<path d="M18.667 12.3333L20.3337 14L22.0003 12.3333" stroke="#3B3C41" stroke-linejoin="round"/>
<path d="M20.333 10V14" stroke="#3B3C41" stroke-linejoin="round"/>
</svg>
