<svg width="120" height="120" viewBox="0 0 120 120" fill="none" xmlns="http://www.w3.org/2000/svg">
<path fill-rule="evenodd" clip-rule="evenodd" d="M60 120C93.1371 120 120 93.1371 120 60C120 26.8629 93.1371 0 60 0C45.133 0 39.4818 17.8318 29 26.7868C16.1188 37.7917 0 41.7299 0 60C0 93.1371 26.8629 120 60 120Z" fill="#F6F6F6"/>
<g filter="url(#filter0_f_1790_1865)">
<path d="M96 39H44C42.3431 39 41 40.1485 41 41.5652V95.4348C41 96.8515 42.3431 98 44 98H96C97.6569 98 99 96.8515 99 95.4348V41.5652C99 40.1485 97.6569 39 96 39Z" fill="#EBEBEB"/>
</g>
<path d="M29.2684 43.2553C29.1222 40.3974 31.4001 38 34.2619 38H66.9988C69.661 38 71.8563 40.0859 71.9923 42.7447L73.7309 76.7447C73.877 79.6026 71.5991 82 68.7374 82H36.0005C33.3383 82 31.143 79.9141 31.007 77.2553L29.2684 43.2553Z" fill="#ED5683"/>
<path d="M29.2653 50.2526C29.1208 47.3956 31.3983 45 34.2589 45H89.7404C92.601 45 94.8785 47.3956 94.734 50.2526L92.9639 85.2525C92.8294 87.9124 90.6335 90 87.9703 90H36.029C33.3658 90 31.1699 87.9124 31.0354 85.2526L29.2653 50.2526Z" fill="white"/>
<defs>
<filter id="filter0_f_1790_1865" x="30" y="28" width="80" height="81" filterUnits="userSpaceOnUse" color-interpolation-filters="sRGB">
<feFlood flood-opacity="0" result="BackgroundImageFix"/>
<feBlend mode="normal" in="SourceGraphic" in2="BackgroundImageFix" result="shape"/>
<feGaussianBlur stdDeviation="5.5" result="effect1_foregroundBlur_1790_1865"/>
</filter>
</defs>
</svg>
