<svg width="16" height="16" viewBox="0 0 16 16" fill="none" xmlns="http://www.w3.org/2000/svg">
<path d="M8.00033 6.66667C9.28899 6.66667 10.3337 5.622 10.3337 4.33333C10.3337 3.04467 9.28899 2 8.00033 2C6.71166 2 5.66699 3.04467 5.66699 4.33333C5.66699 5.622 6.71166 6.66667 8.00033 6.66667Z" stroke="#3B3C41" stroke-width="1.2" stroke-linejoin="round"/>
<path d="M2 13.5997V13.9997H14V13.5997C14 12.1062 14 11.3595 13.7094 10.789C13.4537 10.2873 13.0457 9.87931 12.544 9.62364C11.9735 9.33301 11.2268 9.33301 9.73333 9.33301H6.26667C4.7732 9.33301 4.02647 9.33301 3.45603 9.62364C2.95426 9.87931 2.54631 10.2873 2.29065 10.789C2 11.3595 2 12.1062 2 13.5997Z" stroke="#3B3C41" stroke-width="1.2" stroke-linejoin="round"/>
</svg>
